<?xml version="1.0" standalone="no"?>
<!DOCTYPE svg PUBLIC "-//W3C//DTD SVG 20010904//EN"
 "http://www.w3.org/TR/2001/REC-SVG-20010904/DTD/svg10.dtd">
<svg version="1.0" xmlns="http://www.w3.org/2000/svg"
 width="2001.000000pt" height="2001.000000pt" viewBox="0 0 2001.000000 2001.000000"
 preserveAspectRatio="xMidYMid meet">

<g transform="translate(0.000000,2001.000000) scale(0.100000,-0.100000)"
fill="#000000" stroke="none">
<path d="M9740 17163 c0 -3 11 -20 24 -38 l25 -32 -13 -454 -12 -455 -27 -35
c-15 -20 -27 -38 -27 -41 0 -12 506 -18 565 -8 183 35 330 176 379 366 20 79
21 251 1 327 -31 121 -99 221 -187 279 -97 64 -155 79 -338 89 -201 10 -390
11 -390 2z m552 -57 c102 -38 185 -145 219 -286 20 -80 17 -298 -5 -380 -48
-183 -139 -282 -282 -307 -27 -5 -112 -7 -188 -5 l-139 4 6 242 c4 132 10 357
14 499 l6 259 161 -4 c119 -4 173 -9 208 -22z"/>
<path d="M8275 16953 c-33 -9 -62 -17 -64 -19 -2 -2 7 -21 21 -41 l25 -38 -58
-450 c-52 -401 -61 -458 -88 -522 -29 -70 -29 -73 -9 -73 20 0 140 29 146 35
2 2 -12 25 -32 51 -21 27 -36 58 -36 73 1 54 27 222 36 230 5 5 99 30 209 56
110 26 205 50 211 52 6 2 50 -52 97 -120 70 -101 87 -132 87 -161 0 -27 4 -36
16 -36 32 0 194 42 194 50 0 5 -17 22 -37 38 -22 17 -166 211 -343 461 -167
237 -307 431 -310 430 -3 -1 -32 -8 -65 -16z m170 -357 c82 -118 151 -219 153
-224 3 -9 -369 -105 -377 -97 -5 6 63 535 69 535 3 -1 72 -97 155 -214z"/>
<path d="M12794 16571 c7 -50 6 -51 -198 -459 -204 -408 -205 -409 -245 -426
-23 -9 -41 -18 -41 -21 0 -9 418 -214 482 -236 52 -17 81 -20 168 -17 97 3
111 6 184 41 188 89 326 315 326 532 0 133 -46 242 -142 337 -50 49 -90 73
-299 178 l-242 122 7 -51z m296 -141 c110 -56 148 -81 184 -121 88 -98 104
-229 47 -399 -69 -205 -176 -350 -311 -421 -38 -20 -60 -24 -135 -24 l-90 0
-142 69 c-79 38 -143 73 -143 78 0 13 439 888 446 888 3 0 68 -32 144 -70z"/>
<path d="M6752 16349 c-35 -5 -92 -21 -127 -38 -55 -25 -433 -228 -444 -237
-2 -2 16 -12 41 -23 l44 -19 218 -402 218 -402 -7 -51 -7 -50 33 20 c19 11 99
55 179 98 276 147 332 190 393 302 55 103 72 241 42 358 -23 93 -87 213 -149
281 -119 132 -259 184 -434 163z m129 -81 c108 -49 219 -178 293 -340 50 -108
69 -189 64 -279 -8 -146 -66 -217 -263 -323 -116 -63 -129 -67 -141 -52 -16
23 -464 850 -464 858 0 10 246 139 294 154 58 20 153 12 217 -18z"/>
<path d="M14460 15578 c0 -45 -2 -48 -302 -391 -202 -231 -311 -348 -328 -353
-79 -19 -91 -3 166 -229 131 -116 249 -218 261 -228 23 -18 24 -18 118 34 52
29 92 56 89 61 -3 4 -65 8 -138 8 l-133 0 -131 116 c-73 64 -132 118 -132 121
0 7 314 363 320 363 3 0 55 -43 115 -96 233 -203 213 -189 235 -169 11 10 20
21 20 25 0 4 -72 72 -161 150 -88 78 -159 146 -157 150 4 13 281 325 285 323
3 0 50 -41 105 -90 55 -48 109 -95 119 -103 13 -11 24 -48 38 -134 11 -66 24
-123 29 -128 5 -5 25 30 47 82 l38 91 -24 23 c-27 26 -435 383 -462 405 -16
12 -17 10 -17 -31z"/>
<path d="M5295 15398 c-44 -40 -81 -75 -83 -79 -2 -5 9 -11 25 -15 15 -3 35
-8 44 -10 9 -2 152 -160 318 -350 297 -341 301 -346 301 -390 0 -24 3 -44 6
-44 12 0 183 153 179 160 -3 4 -22 10 -44 14 -36 5 -58 28 -339 350 -280 319
-301 346 -307 390 -4 25 -10 46 -14 45 -3 0 -42 -32 -86 -71z"/>
<path d="M9645 15293 c-1642 -105 -3169 -998 -4078 -2384 -500 -763 -786
-1606 -857 -2528 -13 -173 -13 -588 0 -762 98 -1275 615 -2419 1504 -3326 337
-344 670 -607 1081 -852 658 -393 1370 -629 2165 -716 200 -22 682 -31 895
-16 1042 73 2002 430 2835 1055 369 277 768 676 1048 1049 579 772 931 1663
1038 2627 22 197 30 723 15 932 -51 690 -219 1325 -515 1933 -121 249 -200
388 -362 630 -327 492 -700 894 -1169 1260 -137 108 -471 330 -630 421 -671
381 -1430 612 -2214 673 -121 10 -628 12 -756 4z m145 -177 c0 -3 -44 -63 -97
-133 -186 -246 -421 -618 -604 -954 -437 -804 -749 -1757 -854 -2609 -24 -197
-24 -197 -46 -115 -260 954 -701 1734 -1365 2415 l-162 165 67 57 c727 607
1634 1007 2586 1137 219 31 475 50 475 37z m625 -6 c855 -72 1680 -356 2390
-824 149 -98 354 -249 466 -344 l67 -57 -146 -150 c-407 -416 -698 -821 -958
-1330 -176 -344 -309 -685 -399 -1022 -21 -79 -40 -141 -42 -139 -2 2 -13 73
-24 157 -118 928 -426 1852 -905 2717 -165 298 -368 614 -544 848 -61 80 -110
148 -110 150 0 7 80 4 205 -6z m-319 -146 c130 -169 237 -321 346 -490 600
-937 991 -1965 1138 -2993 58 -404 63 -492 67 -1201 3 -360 3 -675 1 -700 l-3
-45 -39 72 c-215 404 -600 724 -1041 868 -71 23 -142 45 -157 49 l-28 6 0
-1130 0 -1130 90 0 90 0 0 1010 0 1010 50 -20 c447 -176 818 -575 964 -1038
60 -190 68 -254 73 -579 l5 -303 -134 0 c-148 0 -218 13 -307 58 -66 33 -157
121 -193 189 -54 98 -58 136 -58 520 l0 353 -90 0 -90 0 0 -350 c0 -402 6
-454 71 -587 71 -143 200 -260 350 -317 83 -31 190 -46 335 -46 l114 0 0 -206
c0 -113 -3 -204 -7 -202 -5 2 -43 21 -86 42 -70 36 -86 39 -176 44 -81 4 -111
1 -167 -16 -123 -38 -224 -120 -282 -230 -30 -57 -57 -140 -49 -149 3 -2 43
-10 89 -17 l85 -12 11 42 c15 55 66 121 125 161 120 81 273 60 376 -52 81 -88
75 -28 81 -880 6 -843 2 -790 75 -935 87 -174 235 -291 431 -344 l89 -24 -80
-36 c-179 -83 -515 -216 -545 -216 -5 0 -16 15 -24 33 -21 51 -73 105 -130
135 -51 27 -52 27 -298 30 l-248 3 0 -90 0 -91 220 0 c233 0 257 -4 286 -48
13 -19 13 -26 3 -32 -41 -26 -675 -160 -754 -160 -10 0 -4 21 20 73 27 56 37
93 45 167 13 125 32 179 87 240 54 60 125 99 194 107 l49 6 0 88 0 89 -33 0
c-18 0 -59 -7 -92 -15 -139 -37 -263 -136 -323 -257 -31 -64 -37 -89 -60 -249
-5 -36 -17 -82 -27 -102 -28 -59 -92 -124 -151 -153 -50 -24 -73 -28 -215 -37
-101 -6 -221 -6 -327 0 -194 11 -238 25 -314 100 -61 60 -87 123 -99 240 -15
147 -54 233 -148 328 -81 82 -220 145 -318 145 l-33 0 0 -90 0 -90 30 0 c133
0 290 -158 290 -293 0 -66 22 -161 50 -225 17 -36 28 -67 26 -69 -17 -17 -737
134 -763 161 -3 3 10 21 30 41 l35 35 226 0 226 0 0 91 0 90 -247 -3 c-246 -3
-248 -3 -298 -30 -59 -31 -95 -67 -125 -125 -12 -24 -26 -43 -30 -43 -26 0
-398 147 -545 215 l-80 38 75 18 c242 60 424 233 499 474 13 43 16 164 21 815
l5 765 23 42 c32 60 87 112 151 142 46 21 70 25 136 25 100 -1 189 -25 404
-110 180 -72 401 -132 586 -160 166 -25 533 -26 695 -1 128 20 330 65 330 75
0 3 -10 41 -22 84 -14 48 -28 78 -36 78 -8 0 -48 -9 -90 -20 -178 -45 -267
-54 -527 -54 -219 -1 -266 2 -380 23 -172 30 -335 78 -500 146 -232 95 -287
108 -455 109 l-145 1 -80 -40 c-44 -21 -83 -41 -87 -43 -5 -2 -8 134 -8 302
l0 307 66 -51 c152 -117 230 -140 502 -147 l202 -6 0 92 0 91 -173 0 c-188 0
-248 10 -339 56 -71 36 -159 123 -197 193 -55 104 -61 147 -61 451 l0 275 773
-773 772 -772 65 65 65 65 -203 203 -202 202 0 1108 0 1109 -32 -7 c-18 -4
-89 -25 -158 -47 -218 -71 -463 -209 -632 -358 l-59 -52 -63 11 c-34 6 -122
11 -194 11 l-132 0 0 308 c0 442 21 742 76 1117 163 1100 618 2229 1287 3190
85 121 279 375 287 375 3 0 46 -52 96 -116z m-3314 -1461 c170 -185 235 -262
363 -434 507 -677 839 -1460 970 -2289 51 -326 48 -187 52 -2577 l4 -2222 -22
-63 c-57 -171 -209 -305 -384 -337 -32 -6 -122 -11 -198 -11 l-140 0 -123 76
c-800 490 -1489 1250 -1904 2099 -285 582 -449 1176 -511 1845 -18 195 -15
668 5 870 123 1223 622 2288 1478 3154 l147 149 63 -56 c35 -31 125 -122 200
-204z m6858 101 c625 -645 1048 -1362 1285 -2183 139 -482 199 -912 199 -1421
0 -291 -10 -444 -45 -700 -206 -1502 -1084 -2846 -2390 -3661 l-114 -71 -175
5 c-180 4 -225 13 -318 61 -55 29 -158 133 -189 193 -66 125 -63 56 -63 1255
l0 1088 130 0 130 0 0 90 0 90 -130 0 -130 0 0 328 c0 241 4 340 14 377 44
164 177 297 341 341 34 10 118 14 268 14 l217 0 0 90 0 90 -217 0 c-154 0
-239 -5 -288 -15 -84 -18 -202 -73 -265 -122 -25 -20 -51 -41 -59 -47 -20 -16
-10 947 13 1134 142 1181 630 2210 1440 3037 l178 183 27 -19 c14 -11 78 -72
141 -137z m-4200 -4211 l0 -898 -110 110 -110 110 0 395 c0 441 -5 481 -65
608 -43 90 -108 175 -175 226 -27 21 -50 42 -50 46 0 21 207 163 320 220 68
35 170 79 183 80 4 0 7 -404 7 -897z m-749 501 c168 -50 292 -175 335 -339 10
-37 14 -132 14 -355 l0 -305 -345 345 -345 345 0 162 0 163 143 0 c103 0 159
-5 198 -16z"/>
<path d="M7973 14211 c-41 -11 -112 -53 -140 -83 -34 -37 -65 -105 -71 -154
l-5 -45 89 3 c83 3 89 4 92 25 5 35 67 83 107 83 39 0 105 -50 105 -80 0 -28
10 -30 99 -23 92 7 94 10 65 95 -44 130 -204 214 -341 179z"/>
<path d="M8357 13868 c-8 -13 -28 -46 -44 -74 l-30 -50 23 -28 c23 -26 29 -47
24 -91 -5 -57 -78 -105 -131 -86 -28 9 -29 8 -74 -65 -25 -41 -45 -76 -45 -79
0 -2 20 -11 45 -20 33 -13 64 -16 117 -13 85 6 136 28 189 85 62 65 74 97 74
198 0 98 -10 125 -67 190 -46 53 -64 60 -81 33z"/>
<path d="M7665 13839 c-56 -62 -75 -112 -75 -199 0 -148 86 -252 232 -281 59
-12 149 0 183 25 17 12 15 18 -26 84 l-44 72 -46 -6 c-43 -6 -50 -4 -85 29
-32 29 -39 42 -39 74 0 24 9 50 23 71 l23 32 -43 70 c-24 38 -48 70 -54 70 -7
0 -28 -19 -49 -41z"/>
<path d="M11862 14206 c-93 -30 -160 -99 -188 -192 -25 -85 -26 -84 76 -84 82
0 90 2 90 19 0 11 12 33 26 50 53 63 150 48 182 -30 17 -40 17 -41 61 -35 24
3 63 6 87 6 l44 0 -6 33 c-10 53 -43 120 -77 155 -71 75 -200 109 -295 78z"/>
<path d="M12231 13819 c-23 -39 -41 -73 -41 -77 0 -3 10 -16 23 -30 31 -34 31
-101 -2 -136 -32 -34 -80 -50 -114 -37 -24 9 -27 6 -70 -67 l-45 -77 27 -14
c14 -8 61 -17 104 -19 72 -4 82 -2 143 28 101 49 154 134 155 247 1 74 -13
123 -52 179 -24 35 -68 74 -83 74 -2 0 -23 -32 -45 -71z"/>
<path d="M11583 13856 c-16 -13 -42 -48 -58 -78 -27 -47 -30 -63 -30 -138 0
-75 3 -91 29 -138 32 -58 82 -103 143 -129 54 -23 166 -22 220 3 l42 19 -44
70 -44 70 -56 0 c-51 0 -59 3 -86 33 -38 42 -40 98 -5 138 l23 28 -44 73 c-25
40 -48 73 -53 73 -5 0 -21 -11 -37 -24z"/>
<path d="M9855 14333 c-224 -80 -352 -306 -304 -535 10 -48 44 -128 53 -128
11 0 146 83 146 90 0 4 -7 24 -15 43 -41 99 2 243 93 312 91 70 195 80 299 29
126 -61 185 -210 137 -350 -8 -25 -14 -47 -12 -48 27 -21 144 -84 149 -80 18
11 51 125 56 194 14 196 -87 369 -264 453 -62 29 -78 32 -178 35 -86 2 -121
-2 -160 -15z"/>
<path d="M9529 13636 c-229 -63 -384 -284 -366 -521 5 -73 33 -166 65 -216
l18 -29 73 51 c39 28 70 54 68 58 -50 92 -60 196 -28 282 30 78 91 145 166
180 33 16 68 29 77 29 14 0 16 6 12 28 -2 15 -8 54 -12 86 -4 33 -11 60 -17
62 -5 1 -31 -4 -56 -10z"/>
<path d="M10406 13627 c-3 -12 -8 -51 -12 -87 l-6 -66 55 -17 c68 -22 156 -97
187 -161 43 -89 42 -203 -1 -288 l-19 -37 75 -51 75 -50 25 50 c114 226 45
509 -158 644 -57 37 -131 69 -184 79 -26 5 -32 3 -37 -16z"/>
<path d="M9212 12849 c-42 -16 -139 -89 -169 -127 -159 -201 -160 -454 -3
-651 l43 -54 62 69 63 69 -31 34 c-52 60 -72 116 -72 206 0 60 6 91 22 126 26
58 84 122 134 151 22 12 39 25 39 30 0 11 -51 141 -59 149 -3 4 -17 3 -29 -2z"/>
<path d="M10730 12780 c-18 -45 -31 -82 -29 -84 2 -1 20 -12 40 -24 58 -35
114 -103 139 -168 39 -105 12 -254 -59 -318 -12 -11 -21 -24 -21 -30 1 -6 27
-39 59 -74 l58 -63 38 43 c55 64 106 175 118 263 28 196 -73 406 -243 503 -30
18 -58 32 -61 32 -4 0 -21 -36 -39 -80z"/>
<path d="M9869 12493 c-23 -32 -46 -63 -51 -69 -5 -7 5 -25 27 -50 40 -43 52
-73 35 -84 -6 -4 -43 -10 -81 -14 -38 -3 -73 -7 -78 -9 -4 -1 -30 27 -58 63
-27 36 -56 66 -64 67 -8 1 -38 -27 -67 -62 l-54 -65 35 -41 c35 -40 49 -66 80
-140 l15 -37 91 24 c198 51 395 51 598 -2 52 -13 97 -23 98 -22 1 2 12 29 25
62 13 32 41 81 62 108 l39 49 -27 32 c-15 18 -40 47 -57 66 l-30 35 -41 -45
c-23 -24 -50 -56 -61 -71 -19 -25 -23 -26 -65 -18 -25 5 -62 9 -83 10 -24 0
-40 5 -43 15 -7 16 39 90 64 104 12 7 6 22 -34 79 -27 39 -53 72 -59 72 -5 0
-26 -17 -47 -37 l-38 -37 -38 37 c-21 20 -41 37 -45 37 -3 0 -25 -26 -48 -57z"/>
<path d="M9519 11854 c-66 -20 -137 -72 -176 -128 -59 -86 -63 -116 -63 -453
0 -327 -2 -345 -53 -391 -14 -13 -42 -30 -64 -37 l-38 -13 -3 -87 -3 -88 51 6
c108 13 212 94 262 203 22 47 23 63 28 384 4 238 9 341 17 356 20 35 71 73
108 80 l35 6 0 89 0 89 -27 -1 c-16 0 -49 -7 -74 -15z"/>
<path d="M9890 11856 c-93 -25 -172 -94 -217 -191 l-28 -60 -5 -335 c-5 -305
-7 -337 -24 -362 -21 -31 -68 -62 -108 -72 -28 -6 -28 -7 -28 -91 l0 -85 35 0
c97 0 218 84 270 187 l30 58 5 335 c4 293 7 339 22 367 21 38 65 71 107 79
l31 7 0 88 c0 101 1 100 -90 75z"/>
<path d="M10220 11784 l0 -89 47 -15 c32 -10 56 -27 77 -53 l31 -39 5 -196 c5
-189 6 -199 32 -252 15 -30 41 -70 58 -88 36 -39 36 -39 103 47 41 52 45 60
31 72 -34 28 -39 55 -44 249 -6 186 -7 198 -33 252 -50 103 -153 180 -259 194
l-48 7 0 -89z"/>
<path d="M10318 10952 c-20 -57 -52 -89 -105 -107 l-38 -13 -3 -87 -3 -88 50
6 c63 7 135 44 185 94 50 50 96 145 96 201 l0 42 -83 0 -82 0 -17 -48z"/>
<path d="M9910 10195 l0 -85 90 0 90 0 0 85 0 85 -90 0 -90 0 0 -85z"/>
<path d="M9720 10000 l0 -90 90 0 90 0 0 90 0 90 -90 0 -90 0 0 -90z"/>
<path d="M10110 10000 l0 -90 85 0 85 0 0 90 0 90 -85 0 -85 0 0 -90z"/>
<path d="M9910 9810 l0 -90 90 0 90 0 0 90 0 90 -90 0 -90 0 0 -90z"/>
<path d="M9125 7095 c-44 -13 -81 -24 -82 -24 -2 -1 10 -37 27 -82 112 -309
361 -532 690 -620 72 -19 110 -23 240 -23 134 1 168 4 250 26 l95 25 -45 -39
c-63 -55 -211 -153 -292 -194 -197 -99 -446 -164 -629 -164 l-59 0 0 -90 0
-90 48 0 c65 0 212 18 302 36 241 50 500 171 698 325 34 27 62 46 62 42 0 -30
-232 -406 -345 -559 -30 -40 -55 -76 -55 -78 0 -7 129 -106 137 -106 10 1 138
180 225 315 221 341 406 741 522 1125 50 166 54 149 -42 175 -76 21 -84 22
-89 7 -52 -151 -122 -261 -231 -364 -88 -83 -180 -138 -302 -180 -91 -31 -101
-33 -250 -33 -149 0 -159 2 -249 33 -134 47 -222 102 -322 201 -94 94 -165
203 -196 302 -10 32 -20 58 -23 58 -3 -1 -41 -12 -85 -24z"/>
<path d="M6431 13309 c-279 -55 -444 -371 -331 -634 l20 -47 68 37 c37 21 71
41 75 45 5 4 1 31 -7 61 -21 70 -20 117 4 183 55 146 218 221 362 166 82 -31
149 -106 173 -194 16 -60 17 -71 3 -123 -8 -32 -18 -65 -22 -74 -5 -13 6 -24
46 -49 29 -18 63 -39 76 -48 21 -14 23 -13 49 44 39 84 45 230 13 323 -76 226
-298 356 -529 310z"/>
<path d="M6030 12591 c-285 -91 -427 -417 -300 -688 16 -35 33 -63 39 -63 6 0
40 21 76 46 50 35 64 50 59 63 -4 9 -16 41 -27 71 -56 158 44 351 205 398 55
16 59 19 54 42 -2 14 -8 53 -12 88 -8 71 -8 71 -94 43z"/>
<path d="M6927 12578 c-3 -18 -9 -59 -13 -90 -6 -53 -5 -58 13 -58 34 0 141
-60 174 -98 85 -97 108 -233 57 -344 l-26 -56 69 -46 c38 -25 73 -46 77 -46 5
0 24 33 43 73 33 70 34 75 34 203 l0 131 -42 84 c-53 108 -131 185 -235 234
-40 19 -89 37 -109 40 -35 7 -37 6 -42 -27z"/>
<path d="M5703 11796 c-109 -63 -192 -164 -233 -286 -19 -56 -22 -81 -18 -177
4 -107 6 -116 45 -195 23 -46 58 -99 78 -118 l36 -35 58 65 58 65 -28 35
c-112 140 -96 332 36 449 21 18 48 37 61 43 13 6 24 16 24 22 1 23 -55 156
-65 156 -5 0 -29 -11 -52 -24z"/>
<path d="M7251 11739 c-17 -45 -30 -82 -29 -83 2 -1 17 -8 33 -16 17 -8 51
-36 77 -62 110 -112 120 -302 22 -417 l-36 -41 40 -48 c22 -26 50 -56 62 -67
l22 -20 39 45 c164 187 159 475 -11 663 -44 49 -124 108 -166 121 -18 6 -24
-3 -53 -75z"/>
<path d="M6252 11547 l-62 -62 110 -110 110 -110 62 63 63 62 -110 110 -110
110 -63 -63z"/>
<path d="M6665 11500 l-110 -110 63 -62 62 -63 110 110 110 110 -63 63 -62 62
-110 -110z"/>
<path d="M6297 11132 l-107 -107 63 -63 62 -62 110 110 110 110 -60 60 c-33
33 -62 60 -65 60 -3 0 -54 -48 -113 -108z"/>
<path d="M6615 11180 l-60 -60 413 -413 412 -412 66 66 65 66 -411 406 c-227
224 -415 407 -419 407 -3 0 -33 -27 -66 -60z"/>
<path d="M7557 10252 l-167 -167 65 -65 65 -65 168 168 167 167 -65 65 -65 65
-168 -168z"/>
<path d="M7750 10055 l-165 -165 63 -62 62 -63 167 167 168 168 -60 60 c-33
33 -62 60 -65 60 -3 0 -79 -74 -170 -165z"/>
<path d="M7862 9777 l-82 -82 63 -63 62 -62 85 85 84 85 -59 60 c-33 33 -62
60 -65 60 -3 0 -42 -37 -88 -83z"/>
<path d="M6170 9680 l0 -90 485 0 485 0 0 90 0 90 -485 0 -485 0 0 -90z"/>
<path d="M6115 9439 c-128 -26 -272 -128 -337 -240 -33 -56 -64 -148 -72 -216
l-7 -53 91 0 c82 0 90 2 90 19 0 10 9 48 20 84 26 84 96 164 178 204 50 24 68
28 147 28 73 0 99 -5 136 -23 105 -52 179 -145 200 -254 l12 -58 83 0 c83 0
84 0 89 28 28 140 82 217 190 272 62 32 75 35 154 35 104 0 156 -21 230 -90
58 -54 98 -128 107 -197 l7 -48 88 0 c101 0 97 -6 78 96 -49 270 -321 461
-591 416 -108 -18 -220 -76 -292 -152 l-59 -61 -48 50 c-61 64 -138 115 -214
141 -70 25 -207 34 -280 19z"/>
<path d="M5463 8796 c14 -231 84 -476 203 -715 153 -307 356 -563 580 -729 77
-57 232 -152 249 -152 6 0 27 35 47 78 l35 78 -67 36 c-301 165 -598 523 -750
907 -67 168 -120 394 -120 511 0 89 -1 90 -98 90 l-85 0 6 -104z"/>
<path d="M7675 8823 c-32 -390 -212 -802 -485 -1109 -119 -135 -303 -283 -422
-340 l-36 -17 37 -78 c20 -43 41 -78 47 -79 19 0 196 110 277 174 100 78 262
244 340 348 239 320 395 723 414 1071 l6 107 -86 0 -85 0 -7 -77z"/>
<path d="M13373 13305 c-135 -29 -248 -121 -310 -251 -33 -69 -38 -89 -41
-171 -4 -73 0 -105 17 -160 32 -103 27 -101 115 -51 55 31 74 47 70 58 -54
125 -29 248 68 335 175 157 447 47 465 -189 4 -46 0 -74 -15 -113 l-20 -52 77
-45 76 -46 22 47 c101 216 4 493 -211 598 -111 55 -196 65 -313 40z"/>
<path d="M13006 12599 c-114 -27 -256 -140 -310 -247 -74 -146 -76 -321 -5
-464 12 -27 27 -48 31 -48 5 0 39 21 77 46 l69 46 -26 56 c-54 117 -26 258 68
352 42 42 129 90 164 90 17 0 18 6 12 63 -11 92 -17 117 -30 116 -6 -1 -28 -5
-50 -10z"/>
<path d="M13875 12543 c-3 -38 -9 -77 -11 -88 -4 -17 4 -23 57 -38 50 -15 72
-29 119 -75 99 -99 126 -223 75 -347 -14 -33 -25 -61 -25 -62 0 -4 120 -84
135 -89 22 -9 72 104 86 197 30 189 -56 385 -213 488 -56 37 -167 81 -203 81
-8 0 -15 -23 -20 -67z"/>
<path d="M12647 11788 c-111 -60 -209 -195 -236 -326 -32 -152 10 -319 109
-433 l38 -44 32 30 c18 17 46 47 62 68 l31 38 -26 27 c-14 15 -37 52 -51 82
-62 133 -13 307 110 388 25 17 50 32 55 34 11 4 -48 168 -59 168 -4 0 -33 -15
-65 -32z"/>
<path d="M14208 11746 c-16 -40 -28 -77 -28 -82 0 -5 16 -18 36 -29 98 -53
174 -197 161 -306 -7 -59 -38 -131 -76 -179 l-28 -35 58 -65 58 -65 35 34 c40
39 99 145 116 211 17 65 15 198 -5 267 -35 120 -121 232 -226 292 -30 17 -58
31 -64 31 -5 0 -22 -33 -37 -74z"/>
<path d="M13490 9746 c0 -2 -7 -40 -15 -83 -8 -43 -15 -81 -15 -84 0 -4 15
-10 34 -13 19 -4 67 -23 106 -43 134 -66 256 -208 297 -343 9 -30 18 -56 19
-58 4 -6 174 31 174 38 0 25 -38 127 -71 191 -75 145 -192 260 -339 334 -78
39 -190 75 -190 61z"/>
<path d="M12730 9195 l-485 -485 63 -62 62 -63 487 487 488 488 -60 60 c-33
33 -62 60 -65 60 -3 0 -223 -218 -490 -485z"/>
<path d="M14115 9108 c-10 -35 -27 -150 -22 -155 3 -3 35 -15 70 -28 87 -30
165 -84 238 -163 60 -66 120 -173 134 -240 5 -24 11 -32 23 -28 10 3 44 10 77
16 91 17 86 12 69 72 -67 236 -261 441 -491 517 -72 24 -92 26 -98 9z"/>
<path d="M13387 8542 l-497 -497 63 -63 62 -62 498 498 497 497 -63 63 -62 62
-498 -498z"/>
<path d="M12238 8433 c-7 -43 -13 -82 -13 -87 0 -4 27 -17 61 -27 159 -49 324
-214 373 -373 10 -34 23 -61 27 -61 5 0 44 6 87 14 l79 14 -7 36 c-20 107
-115 270 -211 363 -97 92 -244 174 -346 193 l-36 7 -14 -79z"/>
<path d="M14042 7897 c-265 -265 -482 -487 -482 -492 0 -6 27 -37 60 -70 l60
-60 490 490 490 490 -62 62 c-34 35 -65 63 -68 63 -3 0 -222 -217 -488 -483z"/>
<path d="M12871 7836 c-27 -134 -28 -123 20 -136 177 -48 346 -216 400 -397
14 -49 16 -49 119 -29 64 12 65 13 62 42 -2 16 -16 61 -31 100 -65 167 -205
321 -365 400 -50 24 -114 51 -143 58 l-52 14 -10 -52z"/>
<path d="M4430 14503 c-159 -190 -184 -239 -183 -349 1 -137 126 -264 260
-264 70 0 117 19 257 104 125 75 195 106 244 106 90 -1 211 -124 212 -216 0
-35 -36 -120 -70 -163 -53 -67 -108 -97 -221 -121 -122 -27 -128 -29 -109 -40
8 -4 54 -22 101 -38 l86 -30 59 70 c169 202 194 250 194 371 0 91 -29 154
-101 222 -62 58 -120 84 -185 85 -72 0 -120 -19 -260 -106 -183 -112 -245
-126 -329 -74 -113 70 -116 201 -7 322 45 50 91 71 205 94 48 9 87 20 87 24 0
7 -158 70 -176 70 -5 0 -34 -30 -64 -67z"/>
<path d="M16288 13389 c-12 -23 -35 -47 -50 -55 -15 -8 -190 -87 -390 -177
l-363 -164 -73 5 -73 4 36 -78 c20 -43 37 -80 39 -81 2 -2 23 23 47 55 l44 59
380 172 c209 94 384 171 390 171 5 0 -159 -169 -365 -375 -295 -295 -370 -376
-357 -381 16 -6 889 48 995 62 23 3 42 1 42 -3 0 -5 -183 -91 -407 -192 -401
-181 -407 -183 -450 -174 -33 8 -43 7 -43 -2 0 -7 22 -59 48 -115 l48 -103 23
44 23 44 417 188 416 188 44 -11 c24 -6 45 -9 47 -8 3 3 -73 178 -80 186 -2 2
-201 -11 -443 -27 -241 -17 -446 -31 -454 -31 -8 1 132 144 311 319 l324 318
-44 101 c-25 56 -48 102 -52 102 -4 0 -17 -18 -30 -41z"/>
<path d="M3680 13141 c-76 -24 -145 -84 -183 -156 -32 -62 -195 -430 -192
-433 1 -2 22 2 46 8 l44 11 415 -185 c409 -182 415 -186 442 -228 l27 -43 36
80 c68 149 67 145 42 144 -12 -1 -33 -4 -47 -8 -19 -5 -72 14 -225 82 -110 49
-202 91 -204 92 -2 2 5 24 14 49 14 36 24 48 49 54 17 5 165 42 328 83 l297
73 31 70 c16 38 29 71 26 73 -3 3 -562 -133 -628 -153 -15 -4 -16 -1 -7 28 13
49 11 164 -5 202 -21 49 -74 104 -127 131 -52 27 -139 39 -179 26z m95 -143
c70 -26 150 -96 165 -144 16 -48 9 -86 -35 -186 -21 -45 -44 -97 -51 -115
l-14 -31 -212 94 c-117 52 -213 96 -214 97 -5 5 107 242 123 260 45 50 144 61
238 25z"/>
<path d="M3100 11552 c-52 -7 -96 -14 -97 -15 -2 -3 -113 -639 -113 -650 0 -3
20 3 45 15 l45 22 447 -77 448 -78 33 -36 c17 -20 33 -34 35 -32 4 5 117 659
117 676 0 9 -130 88 -182 111 -19 8 -4 -27 58 -134 l67 -116 -29 -169 c-28
-167 -29 -169 -54 -169 -38 1 -448 75 -456 83 -3 3 10 99 30 212 20 113 36
209 36 214 0 5 -13 11 -30 13 -36 5 -30 24 -71 -222 -18 -107 -35 -198 -38
-202 -6 -6 -419 60 -430 68 -4 4 8 87 35 236 l16 86 80 69 c44 37 87 73 95 80
31 24 6 28 -87 15z"/>
<path d="M16995 11430 c-30 -30 -33 -30 -380 -80 -193 -28 -371 -57 -397 -66
-61 -20 -133 -84 -165 -148 -22 -42 -27 -68 -31 -151 -9 -206 63 -367 191
-429 89 -43 130 -43 486 9 l325 46 69 -25 70 -26 -7 68 c-4 37 -10 77 -13 90
l-5 23 -32 -24 c-92 -70 -74 -64 -406 -113 -198 -28 -334 -43 -366 -40 -140
13 -228 123 -250 314 -8 75 15 158 56 206 56 64 95 74 486 130 l362 52 43 -25
42 -25 -6 40 c-3 21 -11 76 -18 122 -6 45 -14 82 -18 82 -3 0 -20 -13 -36 -30z"/>
<path d="M2836 9878 c3 -46 8 -84 9 -86 1 -2 28 9 59 25 l56 27 432 -109 c238
-59 436 -111 440 -114 4 -3 -193 -91 -437 -194 -398 -169 -447 -187 -481 -181
l-37 7 6 -69 c4 -38 7 -86 7 -106 0 -21 4 -38 10 -38 5 0 26 15 46 33 26 23
173 90 508 233 l471 201 3 66 3 66 -38 10 c-21 5 -238 60 -483 121 -406 102
-451 115 -507 151 -34 21 -65 39 -68 39 -4 0 -3 -37 1 -82z"/>
<path d="M16106 9668 c-3 -7 -7 -42 -10 -78 -4 -36 -9 -85 -13 -109 l-6 -45
44 26 44 25 224 -26 223 -25 -6 -51 c-3 -31 -12 -55 -23 -63 -10 -7 -138 -86
-285 -175 -148 -89 -270 -169 -272 -177 -3 -8 -8 -46 -12 -83 l-6 -68 228 139
c126 76 252 153 280 170 28 18 54 32 56 32 3 0 9 -23 12 -52 15 -112 85 -209
172 -239 60 -21 161 -17 210 9 67 35 121 105 142 187 13 48 64 486 58 492 -2
3 -22 -6 -43 -18 l-40 -23 -449 52 -449 52 -37 31 c-27 21 -39 26 -42 17z
m814 -269 c102 -11 187 -23 189 -25 10 -9 -22 -243 -39 -280 -42 -96 -171
-128 -322 -78 -57 19 -114 78 -124 128 -5 32 8 199 22 265 4 21 9 23 47 17 23
-3 125 -15 227 -27z"/>
<path d="M4079 8401 l-34 -40 -435 -123 c-425 -121 -436 -123 -473 -109 -20 7
-40 11 -43 8 -3 -3 2 -32 11 -64 9 -32 23 -83 32 -112 l16 -55 36 41 36 40
433 123 432 123 42 -16 c23 -9 43 -15 46 -13 3 4 -56 227 -63 234 -1 1 -17
-15 -36 -37z"/>
<path d="M15981 8064 c-225 -60 -383 -312 -343 -545 13 -75 53 -166 78 -176
25 -9 27 4 6 39 -89 146 -32 408 111 507 101 69 252 79 417 26 176 -57 303
-138 368 -235 71 -106 75 -217 11 -347 -33 -70 -66 -100 -174 -164 -41 -24
-75 -47 -75 -51 0 -9 44 -17 123 -20 l68 -3 58 135 c70 163 85 220 84 325 -2
145 -53 257 -164 360 -69 63 -191 126 -289 149 -81 19 -208 19 -279 0z"/>
<path d="M4045 7220 l-400 -219 -79 0 c-90 -1 -88 5 -29 -99 l35 -64 43 64 42
63 358 193 c197 106 359 191 361 189 2 -2 -125 -215 -283 -473 l-287 -469 50
-93 c27 -52 53 -94 58 -94 6 0 17 20 26 43 9 23 28 49 41 59 13 9 180 101 371
203 l347 187 75 0 c42 0 76 3 76 8 0 12 -76 147 -83 147 -3 0 -23 -26 -44 -59
l-38 -58 -369 -199 c-203 -110 -371 -197 -374 -195 -2 3 128 222 290 487 l294
482 -30 58 c-17 32 -35 58 -41 58 -5 -1 -190 -99 -410 -219z"/>
<path d="M15128 6693 l-64 -98 48 -3 c43 -3 82 -25 430 -251 369 -240 382
-249 396 -289 7 -23 17 -42 20 -42 4 0 35 44 69 98 l62 97 -52 5 c-47 5 -85
27 -429 250 -343 222 -379 248 -389 280 -6 19 -15 39 -19 43 -4 5 -37 -36 -72
-90z"/>
<path d="M14605 5980 c-32 -33 -57 -62 -54 -64 3 -3 31 -17 62 -31 31 -13 57
-27 57 -29 0 -2 22 -53 49 -114 l49 -109 -162 -161 -161 -160 -138 61 c-114
51 -142 68 -159 95 l-21 34 -79 -79 c-83 -83 -84 -91 -12 -92 17 -1 248 -95
514 -211 266 -115 489 -210 495 -210 6 0 33 22 60 50 l49 49 -43 19 -43 18
-185 414 c-147 331 -187 431 -198 494 -8 43 -16 80 -18 82 -2 2 -30 -23 -62
-56z m303 -662 c61 -137 108 -248 105 -248 -9 0 -478 204 -488 212 -6 5 46 64
130 148 76 77 140 138 141 137 1 -1 51 -113 112 -249z"/>
<path d="M5217 5946 c-67 -25 -109 -60 -346 -285 -220 -209 -260 -241 -313
-241 -4 0 -19 -5 -33 -10 l-27 -10 58 -65 c31 -36 60 -63 63 -59 3 3 17 37 31
74 25 69 28 72 262 294 155 146 254 232 285 247 103 50 220 19 325 -85 76 -76
112 -146 112 -216 0 -96 -26 -130 -319 -408 -248 -236 -266 -251 -309 -257
-25 -4 -46 -10 -46 -14 0 -3 38 -44 84 -90 l84 -84 7 46 c7 44 16 54 275 301
238 227 272 263 301 321 29 59 31 71 27 138 -6 96 -48 177 -143 273 -92 94
-173 136 -270 141 -44 2 -84 -2 -108 -11z"/>
<path d="M6485 4265 c-61 -60 6 -158 85 -125 17 7 35 21 40 31 28 52 -12 119
-70 119 -19 0 -40 -9 -55 -25z"/>
<path d="M13435 4265 c-61 -60 6 -158 85 -125 17 7 35 21 40 31 28 52 -12 119
-70 119 -19 0 -40 -9 -55 -25z"/>
<path d="M11932 4199 c-114 -15 -232 -106 -266 -206 -28 -82 -15 -143 15 -71
45 108 194 186 300 158 61 -17 96 -47 127 -110 24 -49 27 -66 27 -160 -1 -94
-5 -116 -37 -210 -20 -58 -78 -203 -128 -323 -51 -120 -90 -220 -87 -223 4 -5
635 193 646 202 9 8 -33 125 -43 121 -76 -29 -489 -157 -493 -153 -3 3 35 81
85 173 147 274 176 357 177 498 0 119 -23 183 -87 241 -66 59 -133 77 -236 63z"/>
<path d="M7965 4160 c-225 -58 -222 -57 -229 -86 -4 -15 -5 -28 -4 -30 2 -1
55 10 118 26 63 16 116 30 117 30 1 0 -46 -138 -104 -307 -58 -170 -121 -354
-140 -410 -32 -95 -38 -104 -74 -125 -21 -12 -39 -24 -39 -27 0 -9 222 -83
228 -76 3 2 -2 23 -11 45 l-15 40 164 477 c90 263 164 479 164 480 0 6 -32 -1
-175 -37z"/>
<path d="M9090 3941 c-55 -17 -110 -53 -149 -97 -36 -41 -52 -74 -36 -74 3 0
24 15 48 33 83 63 197 73 293 26 126 -60 138 -229 29 -393 -46 -70 -156 -181
-358 -361 -86 -77 -157 -145 -157 -151 0 -11 658 -99 668 -89 9 9 20 109 13
116 -3 3 -121 21 -261 38 -140 18 -256 34 -258 36 -2 2 68 56 155 121 202 150
328 274 374 369 28 58 35 83 37 150 3 72 0 86 -25 135 -33 65 -92 113 -165
135 -54 16 -165 19 -208 6z"/>
<path d="M10560 3908 c-173 -16 -316 -31 -318 -33 -2 -2 -1 -31 3 -65 l7 -61
32 6 c67 10 537 47 542 42 3 -3 -15 -40 -39 -84 -80 -140 -184 -356 -216 -447
-17 -49 -38 -127 -46 -174 -17 -98 -20 -248 -4 -257 5 -4 36 -4 68 0 l59 7 -1
146 c-1 82 5 175 12 211 30 153 97 340 215 599 31 68 56 128 56 133 0 12 1 12
-370 -23z"/>
</g>
</svg>
